<svg width="423" height="408" viewBox="0 0 423 408" fill="none" xmlns="http://www.w3.org/2000/svg">
<path fill-rule="evenodd" clip-rule="evenodd" d="M376.912 353.174C359.27 322.171 335.607 293.464 312.841 266.119C319.568 267.96 328.444 266.525 334.576 263.474C341.466 260.047 344.954 254.085 347.741 247.196C348.137 246.219 350.726 236.146 352.617 236.688C356.098 237.69 357.102 259.899 357.477 262.613C358.816 272.302 360.886 281.795 363.056 291.33C367.737 311.882 372.826 332.492 376.912 353.174ZM301.568 247.931C296.648 248.276 292.93 241.318 289.758 237.724C295.07 237.519 317.739 231.249 320.448 236.661C324.85 245.465 306.052 247.604 301.568 247.931ZM190.951 80.1113C190.93 83.0479 190.929 94.3801 186.348 90.8661C183.248 88.4858 181.558 77.8271 180.597 74.5576C178.636 67.8958 175.623 59.6892 175.967 52.6587C176.62 39.3529 185.348 48.431 187.339 55.5287C189.536 63.3544 190.988 71.9538 190.951 80.1113ZM225.956 138.401C231.746 134.773 229.422 141.544 227.246 144.773C221.126 153.859 219.772 143.333 225.956 138.401ZM212.917 107.283C211.692 100.682 212.3 91.7241 214.185 85.4131C215.665 80.4559 220.4 75.839 223.304 82.1727C225.716 87.431 221.154 101.253 218.722 106.426C216.745 110.633 214.029 114.208 212.917 107.283ZM187.768 109.305C188.851 121.973 177.824 126.61 178.185 112.147C178.408 103.298 185.833 96.7624 187.768 109.305ZM211.086 185.649C211.426 190.906 200.379 209.297 199.583 199.149C199.356 196.255 210.499 180.912 211.086 185.649ZM178.691 167.92C174.911 170.371 164.529 178.558 160.6 176.902C154.321 174.253 161.49 166.83 164.28 164.921C167.328 162.834 175.681 157.724 179.882 158.365C187.587 159.545 182.587 165.15 178.691 167.92ZM121.938 92.1727C112.565 96.1679 109.269 85.0077 107.246 78.3436C105.923 73.9843 101.248 64.8684 106.158 61.7565C114.985 56.1566 124.836 84.9476 121.938 92.1727ZM153.004 93.4863C151.573 89.0143 150.457 84.4459 149.056 79.9661C148.221 77.302 143.855 67.9198 144.381 65.6898C146.045 58.6146 151.76 62.1482 155.083 67.3347C158.493 72.6598 162.058 83.7685 161.699 89.8784C161.366 95.5454 156.075 102.131 153.004 93.4863ZM135.715 46.4569C133.255 38.6775 138.574 32.1368 144.672 40.8046C151.572 50.6071 141.088 60.9695 135.715 46.4569ZM149.206 183.969C149.563 191.084 125.443 201.809 119.991 198.531C112.813 194.217 127.554 188.849 131.651 186.719C135.113 184.923 148.196 175.813 149.206 183.969ZM106.454 173.362C100.333 175.085 94.0581 177.479 87.7619 178.343C79.1143 179.527 79.1876 174.674 85.6582 169.575C91.3129 165.119 101.888 164.042 108.636 161.344C114.027 159.188 129.664 146.839 133.566 150.663C142.358 159.279 112.233 171.678 106.454 173.362ZM108.087 201.091C108.331 210.763 82.7186 214.003 76.9915 214.568C80.8345 211.834 106.336 187.754 108.087 201.091ZM59.6172 152.323C42.2588 151.745 59.6982 139.108 65.5487 136.774C69.795 135.077 79.7878 131.308 84.1077 134.861C95.4435 144.185 64.0822 152.493 59.6172 152.323ZM61.588 116.975C61.9856 110.979 90.8753 101.944 92.5077 107.431C93.7931 111.752 62.9738 129.557 61.588 116.975ZM103.147 124.209C114.608 116.357 130.124 123.735 112.941 132.84C109.569 134.624 100.743 139.443 97.0027 136.696C91.72 132.817 100.112 126.167 103.147 124.209ZM419.312 150.607C416.471 145.577 412.38 138.55 407.674 143.294C405.845 145.134 403.961 152.82 402.724 155.706C398.388 165.807 393.781 177.085 384.642 183.851C379.172 187.899 360.11 194.436 364.893 182.08C368.97 171.538 382.48 162.204 390.627 154.557C394.403 151.011 403.367 143.733 405.333 138.589C406.831 134.667 403.226 125.438 396.756 127.522C393.819 128.469 393.439 137.053 392.365 139.498C390.666 143.357 387.667 146.382 385.016 149.59C380.814 154.678 376.371 162.136 369.779 164.532C361.853 167.418 359.404 162.777 363.479 155.659C367.465 148.703 376.471 144.225 381.98 138.515C384.721 135.673 393.354 127.361 391.258 123.112C386.693 113.86 380.318 127.394 378.049 130.145C376.271 132.297 365.482 146.187 362.115 143.533C358.068 140.346 367.131 127.505 368.8 124.762C372.32 118.973 373.859 119.298 369.402 116.206C366.856 114.436 361.55 112.919 358.736 113.319C351.829 114.299 344.763 120.674 337.642 122.364C334.695 123.065 324.655 122.907 323.439 127.42C321.565 134.365 351.768 151.01 335.855 154.799C323.555 157.722 311.992 138.675 301.882 146.511C285.904 158.898 311.276 166.435 321.023 169.003C325.393 170.156 339.784 170.656 337.682 178.384C335.971 184.667 324.039 183.281 319.439 182.509C310.724 181.051 302.835 176.831 294.686 173.696C292.488 172.853 283.65 168.058 280.999 169.09C277.203 170.575 272.603 185.399 274.814 188.894C277.54 193.197 292.519 191.696 297.583 191.806C306.141 191.988 316.635 191.679 323.927 197.009C331.979 202.893 322.026 203.811 316.526 203.573C304.658 203.057 292.544 198.86 280.915 196.585C276.859 195.789 270.82 193.628 266.789 194.182C260.686 195.025 261.972 195.448 264.481 200.432C270.077 211.555 275.759 212.807 288.139 213.67C293.786 214.061 318.493 210.811 320.436 218.346C314.366 223.125 299.641 220.511 292.477 220.41C287.235 220.334 278.738 221.542 274.181 219.008C267.976 215.55 260.128 202.657 255.579 197.482C247.51 188.303 239.567 179.17 230.735 170.688C240.372 172.055 249.397 175.109 259.16 172.697C269.832 170.058 280.061 162.928 281.637 151.457C282.213 147.259 281.514 142.951 281.214 138.765C281.116 137.428 281.181 136.054 281.021 134.72C280.322 128.922 280.805 127.033 276.821 131.23C272.288 136.005 269.141 146.876 261.347 148.897C252.718 151.137 257.346 144.671 260.854 140.895C269.517 131.57 278.993 123.457 280.427 109.65C281.209 102.12 280.771 93.8565 279.41 86.3468C278.101 79.1293 276.798 79.3487 274.358 85.2616C269.063 98.0868 260.808 108.653 249.834 117.229C247.731 118.874 243.014 122.899 239.839 120.621C236.965 118.561 239.053 114.664 239.835 111.718C241.557 105.211 244.039 99.1787 246.484 92.9238C249.704 84.6842 255.307 73.5682 255.535 64.6935C255.685 58.9309 251.016 56.4563 246.892 52.8451C242.07 48.6202 237.744 44.1194 234.004 38.8993C231.397 35.2629 228.588 29.8075 224.663 27.4182C218.57 23.7074 219.935 28.3369 220.395 32.9673C220.763 36.6661 226.112 73.1968 217.445 71.3195C208.844 69.4595 212.465 35.0784 211.272 27.5315C209.689 17.5336 195.805 18.8914 187.404 17.0656C182.974 16.1003 178.914 15.5955 174.712 13.9614C173.121 13.3428 171.317 10.6451 169.53 11.4581C165.47 13.3014 181.841 28.3374 177.587 33.6661C170.405 42.6627 163.159 18.9034 161.103 14.5697C159.375 10.9246 157.311 6.6556 154.889 3.48727C151.145 -1.40546 150.639 -0.2243 145.129 1.41573C139.618 3.05576 126.458 2.91488 122.296 6.55813C118.273 10.0822 123.407 12.6669 126.195 15.8711C128.836 18.9034 137.394 29.1925 130.181 31.3248C127.576 32.0951 118.123 24.4026 115.675 22.821C110.477 19.4606 111.598 20.2262 107.234 21.3279C102.163 22.6052 96.4549 24.2453 91.5765 25.9727C85.4586 28.1404 84.0016 29.1692 88.5867 33.5524C93.9642 38.6873 102.015 41.78 104.663 49.1268C105.951 52.2999 105.103 55.8486 101.096 55.912C96.8206 55.9812 94.8754 50.1456 93.2303 47.0181C91.1457 43.0598 87.2338 33.7498 82.1603 32.9186C78.9893 32.3989 75.0774 36.2281 72.3949 37.6182C70.8066 38.4401 63.6558 40.5746 63.0797 42.7807C62.4483 45.2034 70.6964 50.455 72.9327 53.0382C78.639 59.6282 84.7027 67.7699 86.861 75.7012C88.5272 88.6489 73.5355 72.9161 71.1723 68.9893C68.5503 64.6351 60.1359 42.1235 52.6035 44.4035C50.5524 45.0248 49.2853 50.0229 47.6069 51.6587C45.5506 53.6624 42.9108 54.4684 40.4424 55.7123C36.7832 57.5579 33.121 59.4022 29.6142 61.4884C28.5304 62.1324 25.584 64.0056 24.9969 64.4303C24.5548 64.7519 23.5767 64.5402 23.0396 64.944C19.371 67.7065 17.6587 73.2941 14.3126 76.6532C12.8112 78.1607 6.13627 82.2764 6.62727 84.4117C7.07437 86.3577 38.8512 87.884 43.6117 88.4118C47.2318 88.8122 62.4331 88.178 64.2896 91.715C66.1044 95.175 63.0322 96.3929 60.0426 97.5386C52.6235 100.382 43.2748 101.055 35.467 102.452C29.9514 103.438 7.3627 104.843 4.43642 110.325C1.41549 115.985 5.08891 119.86 9.30419 120.636C13.9185 121.49 20.5827 119.542 25.0925 118.891C28.7657 118.361 52.2129 112.551 53.4184 117.957C54.7285 123.839 26.6976 128.774 23.9225 129.52C18.6192 130.947 9.67008 131.202 4.99027 133.927C0.796365 136.374 2.36271 136.658 3.52807 140.675C7.55284 154.557 8.98255 151.843 21.2565 148.724C25.9553 147.529 31.9903 145.394 36.4736 147.97C41.8304 151.042 41.5395 154.891 36.7487 157.542C33.4569 159.366 26.5859 159.796 22.8996 160.334C18.5908 160.965 14.2246 161.183 9.87463 161.231C8.59607 161.246 3.0014 160.317 1.78308 161.14C-3.0033 164.37 8.57392 181.194 13.5714 181.85C15.9972 182.169 19.9388 180.514 22.3467 180.048C30.7616 178.409 39.3201 177.541 47.7666 175.983C52.5232 175.107 74.7921 168.595 70.8023 180.13C68.5969 186.501 52.488 189.714 47.1449 191.534C42.0039 193.286 36.8493 194.848 31.5998 196.24C26.6954 197.54 23.8388 197.007 27.1052 202.434C30.4305 207.957 50.2342 224.807 56.4519 224.273C61.5534 223.832 59.6576 221.473 65.3818 224.877C67.4827 226.13 69.6135 228.191 71.4357 229.812C78.4347 236.027 85.6295 244.994 95.4013 246.732C116.288 250.451 144.811 222.505 158.296 209.525C160.976 206.947 171.216 194.298 176.2 197.125C181.438 200.093 172.351 211.904 170.546 214.17C160.488 226.811 147.954 238.943 133.061 245.519C129.094 247.269 117.98 248.949 114.221 252.041C110.493 255.105 114.307 256.092 118.264 258.699C126.704 264.253 137.986 272.446 148.359 269.042C162.016 264.559 169.345 250.234 176.982 238.99C181.219 232.756 201.07 203.3 201.333 226.397C201.46 237.895 194.174 251.057 186.337 258.964C184.872 260.44 175.398 265.161 175.597 266.284C175.9 267.988 181.579 268.719 182.616 268.942C192.668 271.104 222.86 274.05 227.093 261.107C229.998 252.227 226.459 238.038 225.211 229.108C224.821 226.334 222.879 221.877 226.866 220.994C231.972 219.863 236.349 237.703 236.732 240.53C237.519 246.342 236.643 252.399 234.44 258.395C233.472 261.029 230.818 263.382 234.28 263.794C235.535 263.942 242.557 257.258 243.658 256.142C249.258 250.442 249.638 244.022 249.18 236.465C247.936 216.072 238.45 196.19 227.416 179.23C240.609 192.914 253.197 207.082 265.378 221.678C268.422 225.325 270.562 229.786 273.565 233.306C277.898 238.38 283.232 242.507 287.74 247.925C286.413 247.791 274.92 244.695 274.587 247.826C274.285 250.675 284.032 255.088 286.029 256.143C295.017 260.903 298.555 261.319 305.621 269.939C323.205 291.395 339.271 313.639 355.008 336.461C362.699 347.615 370.799 358.605 377.571 370.353C380.969 376.245 383.695 382.535 386.279 388.818C388.056 393.139 390.288 406.183 395.826 407.568C402.264 409.18 400.687 402.094 399.379 398.754C396.43 391.227 394.286 383.898 392.187 376.041C388.774 363.262 386.204 350.275 382.474 337.569C377.819 321.713 373.985 305.727 370.146 289.662C367.654 279.235 365.512 268.633 363.909 258.028C362.808 250.745 363.084 242.945 361.13 235.808C368.739 242.665 367.258 255.054 379.963 255.94C389.782 256.626 396.877 248.701 402.494 241.708C407.074 236.005 413.658 227.386 414.547 219.893C415.607 210.952 408.114 217.347 402.53 219.284C398.926 220.536 388.99 226.252 386.025 222.839C381.878 218.063 396.678 211.856 399.539 210.037C405.833 206.041 412.812 201.185 417.606 195.328C419.499 193.013 427.342 167.876 418.64 171.291C417.536 171.724 415.998 175.238 415.108 176.474C410.977 182.204 406.285 187.374 401.221 192.286C395.701 197.637 383.651 210.23 374.448 207.503C378.178 196.209 393.796 190.321 402.238 182.916C407.664 178.16 412.361 172.905 415.587 166.385C417.19 163.141 421.267 154.055 419.312 150.607Z" fill="#02362C"/>
</svg>
