<svg width="41" height="41" viewBox="0 0 41 41" fill="none" xmlns="http://www.w3.org/2000/svg">
<g id="u:angle-down">
<path id="Vector" d="M28.988 15.784C28.6757 15.4736 28.2533 15.2993 27.813 15.2993C27.3726 15.2993 26.9502 15.4736 26.638 15.784L20.6546 21.684L14.7546 15.784C14.4423 15.4736 14.0199 15.2993 13.5796 15.2993C13.1393 15.2993 12.7169 15.4736 12.4046 15.784C12.2484 15.9389 12.1244 16.1232 12.0398 16.3263C11.9552 16.5294 11.9116 16.7473 11.9116 16.9673C11.9116 17.1873 11.9552 17.4052 12.0398 17.6083C12.1244 17.8114 12.2484 17.9957 12.4046 18.1506L19.4713 25.2173C19.6262 25.3735 19.8106 25.4975 20.0137 25.5821C20.2168 25.6667 20.4346 25.7103 20.6546 25.7103C20.8746 25.7103 21.0925 25.6667 21.2956 25.5821C21.4987 25.4975 21.683 25.3735 21.838 25.2173L28.988 18.1506C29.1442 17.9957 29.2682 17.8114 29.3528 17.6083C29.4374 17.4052 29.4809 17.1873 29.4809 16.9673C29.4809 16.7473 29.4374 16.5294 29.3528 16.3263C29.2682 16.1232 29.1442 15.9389 28.988 15.784Z" fill="#333333"/>
</g>
</svg>
